<?xml version="1.0" encoding="UTF-8" standalone="no"?>
<!DOCTYPE svg PUBLIC "-//W3C//DTD SVG 1.1//EN" "http://www.w3.org/Graphics/SVG/1.1/DTD/svg11.dtd">
<svg width="100%" height="100%" viewBox="0 0 500 500" version="1.1" xmlns="http://www.w3.org/2000/svg" xmlns:xlink="http://www.w3.org/1999/xlink" xml:space="preserve" xmlns:serif="http://www.serif.com/" style="fill-rule:evenodd;clip-rule:evenodd;stroke-linejoin:round;stroke-miterlimit:2;">
    <g transform="matrix(0.780956,-0.780956,1.17148,1.17148,-143.904,81.6532)">
        <path d="M201.792,84.754C201.792,63.642 176.08,46.502 144.411,46.502C112.742,46.502 87.031,63.642 87.031,84.754L87.031,395.195C87.031,416.307 112.742,433.447 144.411,433.447C176.08,433.447 201.792,416.307 201.792,395.195L201.792,84.754Z" style="fill:white;"/>
    </g>
    <g transform="matrix(-0.780956,-0.780956,-1.17148,1.17148,643.904,81.6532)">
        <path d="M201.792,84.754C201.792,63.642 176.08,46.502 144.411,46.502C112.742,46.502 87.031,63.642 87.031,84.754L87.031,395.195C87.031,416.307 112.742,433.447 144.411,433.447C176.08,433.447 201.792,416.307 201.792,395.195L201.792,84.754Z" style="fill:white;"/>
    </g>
</svg>
